:version 1.10
:name ASF
:units
  mass 1
  length 1
  angle deg
:documentation
  ASF file generated by Kaydara
:root
  axis xyz
  order  tx ty tz rx ry rz
  position 0 0 0
  orientation 0 0 0
:bonedata
  begin
    id 1
    name RightUpLegDummy
    direction -0.718183 -0.695806 0.00816078
    length 4.904
    axis 0 0 0 xyz
  end
  begin
    id 2
    name RightUpLeg
    direction 3.53373e-006 -0.995788 0.0916898
    length 17.4976
    axis -3.49089 -0.000906625 0.000286804 xyz
    dof rx ry rz
  end
  begin
    id 3
    name RightLeg
    direction 0.00371092 -0.995096 -0.0988419
    length 16.5821
    axis 3.68512 0.0193738 -0.131023 xyz
    dof rx ry rz
  end
  begin
    id 4
    name RightFoot
    direction 0.00079151 -0.46099 0.887405
    length 3.77069
    axis 4.81691e-005 -0.120479 -0.188788 xyz
    dof rx ry rz
  end
  begin
    id 5
    name RightToes
    direction 0 0 0
    length 0
    axis 0 0 0 xyz
    dof rx ry rz
  end
  begin
    id 6
    name SpineDummy
    direction 8.3039e-015 1 4.57515e-016
    length 4.6813
    axis 0 0 0 xyz
  end
  begin
    id 7
    name Spine
    direction -3.15643e-008 0.999988 0.00495137
    length 10.1015
    axis -0.001389 0.000121418 2.40972e-006 xyz
    dof rx ry rz
  end
  begin
    id 8
    name Spine1
    direction 0 0 0
    length 0
    axis -0.001389 0.000121451 1.30017e-006 xyz
    dof rx ry rz
  end
  begin
    id 9
    name HEadDummy
    direction -1.99912e-008 0.999999 0.00127422
    length 3.43865
    axis -0.001389 0.000121451 1.30017e-006 xyz
  end
  begin
    id 10
    name HEad
    direction 0 0 0
    length 0
    axis 0 0 0 xyz
    dof rx ry rz
  end
  begin
    id 11
    name LeftShoulder1Dummy
    direction 0.998891 -0.0402509 -0.0244456
    length 3.5433
    axis -0.001389 0.000121451 1.30017e-006 xyz
  end
  begin
    id 12
    name LeftShoulder1
    direction 0.99951 -0.000327763 0.0313091
    length 4.05031
    axis -0.001389 0.000121451 1.30017e-006 xyz
    dof rx ry rz
  end
  begin
    id 13
    name LeftArm
    direction 0.998561 -0.00100056 -0.0536182
    length 10.3537
    axis -23.1894 0.134784 0.967509 xyz
    dof rx ry rz
  end
  begin
    id 14
    name LeftForeArm
    direction 0.998903 0.00866432 0.046012
    length 8.70632
    axis -9.91835 -0.06569 -0.177794 xyz
    dof rx ry rz
  end
  begin
    id 15
    name LeftHand
    direction 0 0 0
    length 0
    axis 0 0 0 xyz
    dof rx ry rz
  end
  begin
    id 16
    name RightShoulderDummy
    direction -0.998891 -0.0402509 -0.0244414
    length 3.5433
    axis -0.001389 0.000121451 1.30017e-006 xyz
  end
  begin
    id 17
    name RightShoulder
    direction -0.99951 -0.000327807 0.0313133
    length 4.05031
    axis 0.215806 0.000203643 -0.0068026 xyz
    dof rx ry rz
  end
  begin
    id 18
    name RightArm
    direction -0.998573 -0.000999564 -0.053403
    length 10.3947
    axis -23.2009 -0.134239 -0.964101 xyz
    dof rx ry rz
  end
  begin
    id 19
    name RightForeArm
    direction -0.998898 0.00868028 0.0461306
    length 8.68355
    axis -9.92322 0.0658061 0.178868 xyz
    dof rx ry rz
  end
  begin
    id 20
    name RightHand
    direction 0 0 0
    length 0
    axis 0 0 0 xyz
    dof rx ry rz
  end
  begin
    id 21
    name LeftUpLegDummy
    direction 0.718183 -0.695806 0.00816078
    length 4.904
    axis 0 0 0 xyz
  end
  begin
    id 22
    name LeftUpLeg
    direction -6.81752e-006 -0.995793 0.0916337
    length 17.4976
    axis -3.48766 0.00143442 -0.000524262 xyz
    dof rx ry rz
  end
  begin
    id 23
    name LeftLeg
    direction -0.00601358 -0.995091 -0.0987824
    length 16.5821
    axis 3.68178 -0.00654042 -0.000285133 xyz
    dof rx ry rz
  end
  begin
    id 24
    name LeftFoot
    direction -0.00417578 -0.460984 0.887399
    length 3.77069
    axis 1.87233e-006 4.66016e-005 -8.6538e-006 xyz
    dof rx ry rz
  end
  begin
    id 25
    name LeftToes
    direction 0 0 0
    length 0
    axis 0 0 0 xyz
    dof rx ry rz
  end
:hierarchy
  begin
    root RightUpLegDummy SpineDummy LeftUpLegDummy
    RightUpLegDummy RightUpLeg
    RightUpLeg RightLeg
    RightLeg RightFoot
    RightFoot RightToes
    SpineDummy Spine
    Spine Spine1
    Spine1 HEadDummy LeftShoulder1Dummy RightShoulderDummy
    HEadDummy HEad
    LeftShoulder1Dummy LeftShoulder1
    LeftShoulder1 LeftArm
    LeftArm LeftForeArm
    LeftForeArm LeftHand
    RightShoulderDummy RightShoulder
    RightShoulder RightArm
    RightArm RightForeArm
    RightForeArm RightHand
    LeftUpLegDummy LeftUpLeg
    LeftUpLeg LeftLeg
    LeftLeg LeftFoot
    LeftFoot LeftToes
  end

:SAMPLES-PER-SECOND 30
:FULLY-SPECIFIED
:DEGREES
142
root  -62.9942 39.6732 0.193265 -3.50049 -84.4654 -3.12463
RightUpLeg  -16.4216 -18.8455 -3.8055
RightLeg  21.3287 2.12726 2.23938
RightFoot  3.70193 0.159998 -1.0299
RightToes  0.000481921 0.542163 -0.142578
Spine  17.8279 -2.51855 -0.466376
Spine1  -2.74591 -5.29648 18.503
HEad  -13.1609 21.0708 -14.5421
LeftShoulder1  8.75612 -12.1059 -48.9923
LeftArm  -17.7139 19.8156 -29.496
LeftForeArm  129.737 -81.2781 -89.4415
LeftHand  -0.25398 0.0180481 5.50724
RightShoulder  3.4973 5.8958 31.224
RightArm  -24.5052 -25.5472 32.3133
RightForeArm  -2.20436 61.6139 21.6971
RightHand  -1.85228 5.88985 -19.321
LeftUpLeg  -8.686 1.31217 6.23573
LeftLeg  55.8029 4.33016 7.34813
LeftFoot  -3.30982 0.590376 -8.02342
LeftToes  1.06247e-005 4.65869e-005 -8.65512e-006
143
root  -63.8481 39.9657 0.0580487 -14.7157 -84.5534 8.36749
RightUpLeg  -14.6894 -17.4968 -5.30779
RightLeg  20.5534 0.948591 2.47698
RightFoot  3.35484 0.175736 -1.18497
RightToes  0.000481921 0.542163 -0.142578
Spine  16.6506 -0.975617 5.28926
Spine1  -1.92599 -1.50991 9.63344
HEad  -12.6887 17.6999 -13.2298
LeftShoulder1  8.59219 -12.3645 -47.2511
LeftArm  -12.2329 19.4398 -33.3286
LeftForeArm  70.4738 -69.7242 -22.6783
LeftHand  -0.25398 0.0180481 5.50724
RightShoulder  4.07272 7.02377 32.7649
RightArm  -16.1779 -22.2558 27.5881
RightForeArm  -9.78516 51.6535 14.9005
RightHand  -1.8405 6.47016 -18.2394
LeftUpLeg  -13.9705 2.5429 4.68211
LeftLeg  63.4997 4.54017 10.4109
LeftFoot  -3.12122 0.428552 -5.64855
LeftToes  1.06247e-005 4.65869e-005 -8.65512e-006
144
root  -64.6622 40.3373 -0.110229 -28.6208 -84.4848 22.4957
RightUpLeg  -12.8968 -15.7924 -6.72938
RightLeg  19.3082 -0.198497 2.33291
RightFoot  3.07335 0.226471 -1.62298
RightToes  0.000481921 0.542163 -0.142578
Spine  15.9364 0.563691 8.07394
Spine1  -0.63318 1.21127 4.29081
HEad  -12.6631 14.4221 -13.4836
LeftShoulder1  8.62441 -12.0698 -48.3373
LeftArm  -10.3425 17.5254 -33.8046
LeftForeArm  56.6763 -48.6149 -8.26366
LeftHand  -0.25398 0.0180481 5.50724
RightShoulder  4.08697 7.14314 32.4287
RightArm  -5.53834 -17.8121 24.9116
RightForeArm  -9.56724 44.1228 11.434
RightHand  -1.46735 5.95456 -15.3309
LeftUpLeg  -17.8183 3.70742 3.05134
LeftLeg  67.0789 4.19933 11.5142
LeftFoot  -5.33592 0.311295 -5.37227
LeftToes  1.06247e-005 4.65869e-005 -8.65512e-006
145
root  -65.4308 40.6659 -0.307576 -35.5502 -83.8695 29.4056
RightUpLeg  -10.7219 -14.5206 -7.9033
RightLeg  17.8969 -1.55477 2.34745
RightFoot  2.42213 0.195341 -1.4793
RightToes  0.000481921 0.542163 -0.142578
Spine  16.2117 1.03456 10.2244
Spine1  -0.99613 2.9269 -1.16808
HEad  -12.1195 11.1855 -11.9325
LeftShoulder1  8.74638 -12.2998 -48.3094
LeftArm  -12.3358 17.3987 -32.7071
LeftForeArm  42.3006 -26.5851 -3.69921
LeftHand  -0.25398 0.0180481 5.50724
RightShoulder  4.52301 7.90149 33.7151
RightArm  4.2116 -14.4019 23.1343
RightForeArm  -6.22305 39.2365 9.50914
RightHand  -1.28183 5.84494 -13.5887
LeftUpLeg  -20.1853 4.27085 2.22864
LeftLeg  66.3075 4.05381 10.7679
LeftFoot  -7.19153 0.262077 -6.02425
LeftToes  1.06247e-005 4.65869e-005 -8.65512e-006
146
root  -66.1777 40.8931 -0.513737 -34.8013 -82.9916 28.5645
RightUpLeg  -8.32777 -13.8064 -8.73645
RightLeg  16.4376 -2.9898 2.77459
RightFoot  1.95052 0.170497 -1.34879
RightToes  0.000481921 0.542163 -0.142578
Spine  15.5524 0.892416 11.3639
Spine1  0.0233315 3.48691 -4.64932
HEad  -11.8685 8.43154 -10.549
LeftShoulder1  9.0313 -12.6059 -48.9383
LeftArm  -18.0647 18.6694 -29.8343
LeftForeArm  23.2507 -8.97992 -2.63027
LeftHand  -0.25398 0.0180481 5.50724
RightShoulder  4.67821 8.28674 33.7324
RightArm  11.4692 -10.7203 24.1323
RightForeArm  -3.62501 36.3722 8.47175
RightHand  -1.26207 5.81922 -13.4082
LeftUpLeg  -21.0993 4.53482 2.06679
LeftLeg  61.6715 4.64537 9.84375
LeftFoot  -8.43433 0.202821 -5.9484
LeftToes  1.06247e-005 4.65869e-005 -8.65512e-006
